<?xml version="1.0" encoding="utf-8"?>
<!-- Generator: Adobe Illustrator 16.0.4, SVG Export Plug-In . SVG Version: 6.00 Build 0)  -->
<!DOCTYPE svg PUBLIC "-//W3C//DTD SVG 1.1//EN" "http://www.w3.org/Graphics/SVG/1.1/DTD/svg11.dtd">
<svg version="1.1" id="US_UK_Download_on_the" xmlns="http://www.w3.org/2000/svg" xmlns:xlink="http://www.w3.org/1999/xlink"
	 x="0px" y="0px" width="156.796px" height="38px" viewBox="0 0 156.796 38" enable-background="new 0 0 156.796 38"
	 xml:space="preserve">
<g>
	<path fill="#A6A6A6" d="M152.303,38H4.494C2.017,38,0,35.989,0,33.514V4.492C0,2.015,2.017,0,4.494,0h147.809
		c2.474,0,4.493,2.015,4.493,4.492v29.021C156.797,35.989,154.777,38,152.303,38L152.303,38z"/>
	<path d="M155.946,33.514c0,2.013-1.63,3.641-3.644,3.641H4.494c-2.014,0-3.648-1.629-3.648-3.641V4.49
		c0-2.01,1.634-3.644,3.648-3.644h147.809c2.016,0,3.644,1.633,3.644,3.644V33.514L155.946,33.514z"/>
	<g>
		<g>
			<path fill="#FFFFFF" d="M28.98,18.781c-0.028-3.063,2.561-4.554,2.679-4.623c-1.466-2.095-3.74-2.381-4.537-2.403
				c-1.91-0.196-3.761,1.119-4.733,1.119c-0.991,0-2.489-1.099-4.102-1.065c-2.076,0.031-4.02,1.208-5.085,3.036
				c-2.199,3.728-0.559,9.208,1.546,12.22c1.054,1.478,2.286,3.124,3.897,3.065c1.577-0.062,2.166-0.983,4.07-0.983
				c1.886,0,2.438,0.983,4.083,0.946c1.691-0.025,2.758-1.482,3.775-2.972c1.219-1.691,1.707-3.356,1.727-3.443
				C32.26,23.664,29.014,22.452,28.98,18.781z"/>
			<path fill="#FFFFFF" d="M25.875,9.773c0.848-1.04,1.428-2.452,1.267-3.886c-1.228,0.053-2.763,0.831-3.646,1.848
				c-0.783,0.894-1.481,2.362-1.3,3.742C23.574,11.578,24.989,10.796,25.875,9.773z"/>
		</g>
	</g>
	<g>
		<path fill="#FFFFFF" d="M52.886,29.93h-1.863l-0.248-5.002c-0.119-2.259-0.171-3.939-0.16-5.037h-0.053
			c-0.378,1.407-0.846,2.914-1.401,4.523l-1.863,5.409h-1.455l-1.703-5.321c-0.508-1.609-0.923-3.146-1.242-4.613h-0.036
			c-0.059,1.796-0.13,3.507-0.213,5.127l-0.283,4.912h-1.792l0.798-11.956h2.466l1.721,5.179c0.426,1.278,0.799,2.651,1.118,4.117
			h0.053c0.378-1.525,0.78-2.897,1.206-4.117l1.792-5.179h2.466L52.886,29.93z"/>
		<path fill="#FFFFFF" d="M61.277,29.93h-1.721l-0.142-0.993h-0.053c-0.591,0.793-1.431,1.188-2.519,1.188
			c-0.816,0-1.472-0.26-1.969-0.78c-0.45-0.473-0.674-1.057-0.674-1.755c0-1.053,0.44-1.857,1.322-2.412
			c0.881-0.558,2.119-0.828,3.716-0.817v-0.159c0-1.137-0.595-1.702-1.787-1.702c-0.851,0-1.6,0.211-2.249,0.639l-0.39-1.262
			c0.803-0.495,1.789-0.743,2.958-0.743c2.255,0,3.383,1.188,3.383,3.565v3.177C61.152,28.737,61.194,29.421,61.277,29.93z
			 M59.29,26.968v-1.331c-2.117-0.035-3.175,0.544-3.175,1.739c0,0.449,0.123,0.787,0.371,1.012
			c0.247,0.225,0.558,0.336,0.934,0.336c0.424,0,0.814-0.131,1.174-0.398c0.358-0.266,0.579-0.605,0.661-1.02
			C59.277,27.211,59.29,27.098,59.29,26.968z"/>
		<path fill="#FFFFFF" d="M69.348,21.539l-0.372,1.455c-0.484-0.235-1.04-0.354-1.668-0.354c-0.84,0-1.504,0.28-1.996,0.843
			s-0.735,1.275-0.735,2.139c0,0.908,0.258,1.631,0.771,2.163c0.514,0.531,1.168,0.799,1.959,0.799c0.591,0,1.171-0.119,1.739-0.355
			l0.266,1.438c-0.627,0.295-1.418,0.443-2.376,0.443c-1.312,0-2.358-0.399-3.14-1.197c-0.781-0.799-1.171-1.865-1.171-3.202
			c0-1.336,0.42-2.433,1.26-3.29c0.839-0.857,1.969-1.286,3.388-1.286C68.077,21.133,68.769,21.269,69.348,21.539z"/>
		<path fill="#FFFFFF" d="M83.503,29.93h-2.039l-1.119-3.512h-3.884l-1.064,3.512h-1.988l3.849-11.956h2.377L83.503,29.93z
			 M80.009,24.947l-1.012-3.124c-0.105-0.319-0.307-1.069-0.603-2.251h-0.036c-0.119,0.508-0.308,1.258-0.567,2.251l-0.993,3.124
			H80.009z"/>
		<path fill="#FFFFFF" d="M93.4,25.513c0,1.468-0.396,2.627-1.188,3.479c-0.709,0.757-1.59,1.134-2.643,1.134
			c-1.136,0-1.95-0.406-2.448-1.224h-0.035v4.542h-1.915v-9.297c0-0.922-0.024-1.866-0.072-2.837h1.685l0.108,1.365h0.035
			c0.638-1.027,1.605-1.542,2.908-1.542c1.017,0,1.865,0.402,2.547,1.207C93.061,23.143,93.4,24.201,93.4,25.513z M91.45,25.586
			c0-0.842-0.189-1.532-0.568-2.077c-0.415-0.566-0.971-0.851-1.668-0.851c-0.473,0-0.901,0.154-1.287,0.469
			c-0.384,0.313-0.637,0.725-0.754,1.232c-0.059,0.237-0.089,0.433-0.089,0.587v1.437c0,0.627,0.191,1.157,0.577,1.587
			c0.384,0.434,0.884,0.648,1.498,0.648c0.722,0,1.282-0.279,1.686-0.834C91.249,27.228,91.45,26.494,91.45,25.586z"/>
		<path fill="#FFFFFF" d="M103.316,25.513c0,1.468-0.396,2.627-1.188,3.479c-0.711,0.757-1.591,1.134-2.645,1.134
			c-1.133,0-1.95-0.406-2.445-1.224h-0.037v4.542h-1.916v-9.297c0-0.922-0.024-1.866-0.07-2.837H96.7l0.105,1.365h0.035
			c0.639-1.027,1.609-1.542,2.91-1.542c1.017,0,1.866,0.402,2.545,1.207C102.978,23.143,103.316,24.201,103.316,25.513z
			 M101.365,25.586c0-0.842-0.188-1.532-0.566-2.077c-0.414-0.566-0.972-0.851-1.669-0.851c-0.474,0-0.902,0.154-1.288,0.469
			c-0.384,0.313-0.634,0.725-0.753,1.232C97.03,24.597,97,24.792,97,24.946v1.437c0,0.627,0.192,1.157,0.576,1.587
			c0.384,0.434,0.884,0.648,1.499,0.648c0.721,0,1.283-0.279,1.687-0.834C101.164,27.228,101.365,26.494,101.365,25.586z"/>
		<path fill="#FFFFFF" d="M114.402,26.578c0,1.017-0.354,1.845-1.061,2.483c-0.779,0.697-1.866,1.047-3.258,1.047
			c-1.286,0-2.318-0.249-3.098-0.746l0.443-1.596c0.839,0.508,1.764,0.762,2.767,0.762c0.723,0,1.285-0.16,1.688-0.488
			c0.402-0.326,0.604-0.761,0.604-1.306c0-0.484-0.165-0.895-0.497-1.225c-0.331-0.332-0.88-0.641-1.65-0.925
			c-2.091-0.781-3.139-1.925-3.139-3.43c0-0.984,0.365-1.789,1.1-2.416c0.732-0.628,1.709-0.942,2.927-0.942
			c1.089,0,1.993,0.189,2.716,0.568l-0.48,1.562c-0.675-0.368-1.438-0.551-2.288-0.551c-0.676,0-1.201,0.167-1.579,0.497
			c-0.319,0.295-0.479,0.657-0.479,1.082c0,0.473,0.184,0.862,0.549,1.171c0.319,0.283,0.898,0.591,1.739,0.922
			c1.028,0.415,1.786,0.898,2.271,1.455C114.162,25.059,114.402,25.75,114.402,26.578z"/>
		<path fill="#FFFFFF" d="M120.735,22.745h-2.112v4.188c0,1.063,0.373,1.596,1.119,1.596c0.342,0,0.625-0.028,0.85-0.088
			l0.056,1.454c-0.378,0.144-0.877,0.214-1.489,0.214c-0.758,0-1.348-0.23-1.774-0.692c-0.426-0.46-0.639-1.235-0.639-2.324v-4.347
			h-1.259V21.31h1.259v-1.578l1.88-0.569v2.146h2.112v1.437H120.735z"/>
		<path fill="#FFFFFF" d="M130.261,25.549c0,1.324-0.379,2.412-1.135,3.265c-0.792,0.876-1.845,1.312-3.158,1.312
			c-1.266,0-2.273-0.419-3.023-1.259c-0.752-0.84-1.127-1.898-1.127-3.175c0-1.337,0.387-2.431,1.162-3.282
			c0.773-0.851,1.818-1.277,3.131-1.277c1.267,0,2.281,0.419,3.051,1.259C129.896,23.208,130.261,24.26,130.261,25.549z
			 M128.274,25.611c0-0.795-0.173-1.478-0.514-2.046c-0.403-0.688-0.977-1.031-1.722-1.031c-0.771,0-1.355,0.344-1.758,1.031
			c-0.344,0.568-0.514,1.263-0.514,2.081c0,0.794,0.17,1.478,0.514,2.046c0.415,0.688,0.995,1.031,1.738,1.031
			c0.732,0,1.307-0.35,1.722-1.05C128.097,27.094,128.274,26.405,128.274,25.611z"/>
		<path fill="#FFFFFF" d="M136.487,22.994c-0.189-0.035-0.39-0.052-0.604-0.052c-0.674,0-1.195,0.254-1.561,0.761
			c-0.319,0.451-0.479,1.02-0.479,1.703v4.523h-1.916l0.017-5.905c0-0.995-0.023-1.898-0.07-2.715h1.667l0.072,1.649h0.052
			c0.203-0.567,0.521-1.022,0.958-1.366c0.427-0.307,0.887-0.46,1.385-0.46c0.178,0,0.338,0.011,0.479,0.035V22.994L136.487,22.994z
			"/>
		<path fill="#FFFFFF" d="M145.055,25.213c0,0.342-0.022,0.633-0.07,0.867h-5.748c0.023,0.852,0.303,1.502,0.835,1.953
			c0.485,0.401,1.11,0.603,1.882,0.603c0.851,0,1.625-0.137,2.323-0.408l0.3,1.331c-0.814,0.354-1.78,0.531-2.892,0.531
			c-1.337,0-2.386-0.392-3.146-1.179c-0.763-0.787-1.146-1.843-1.146-3.167c0-1.301,0.354-2.383,1.065-3.245
			c0.743-0.923,1.75-1.385,3.016-1.385c1.242,0,2.181,0.462,2.819,1.385C144.801,23.231,145.055,24.136,145.055,25.213z
			 M143.229,24.715c0.011-0.568-0.113-1.058-0.373-1.472c-0.331-0.533-0.839-0.799-1.525-0.799c-0.628,0-1.137,0.26-1.524,0.78
			c-0.32,0.415-0.51,0.911-0.569,1.489L143.229,24.715L143.229,24.715z"/>
	</g>
	<g>
		<g>
			<path fill="#FFFFFF" d="M46.526,9.511c0,1.119-0.335,1.961-1.006,2.526c-0.621,0.521-1.502,0.783-2.645,0.783
				c-0.566,0-1.051-0.025-1.457-0.074V6.635c0.529-0.085,1.099-0.129,1.715-0.129c1.088,0,1.908,0.237,2.461,0.71
				C46.214,7.75,46.526,8.515,46.526,9.511z M45.475,9.539c0-0.725-0.192-1.281-0.576-1.669c-0.384-0.387-0.945-0.581-1.683-0.581
				c-0.313,0-0.581,0.021-0.802,0.064V12c0.123,0.019,0.347,0.027,0.673,0.027c0.762,0,1.351-0.211,1.765-0.636
				C45.265,10.968,45.475,10.351,45.475,9.539z"/>
			<path fill="#FFFFFF" d="M52.092,10.488c0,0.689-0.197,1.253-0.59,1.696c-0.412,0.456-0.958,0.683-1.641,0.683
				c-0.658,0-1.182-0.218-1.572-0.655c-0.39-0.437-0.584-0.987-0.584-1.65c0-0.693,0.2-1.262,0.603-1.705
				c0.403-0.442,0.945-0.663,1.627-0.663c0.658,0,1.186,0.218,1.586,0.654C51.902,9.271,52.092,9.819,52.092,10.488z M51.059,10.521
				c0-0.413-0.089-0.768-0.266-1.063c-0.209-0.357-0.507-0.536-0.894-0.536c-0.4,0-0.704,0.179-0.913,0.536
				c-0.179,0.296-0.267,0.656-0.267,1.082c0,0.414,0.089,0.768,0.267,1.063c0.215,0.357,0.516,0.536,0.904,0.536
				c0.38,0,0.679-0.181,0.893-0.545C50.968,11.291,51.059,10.934,51.059,10.521z"/>
			<path fill="#FFFFFF" d="M59.559,8.286l-1.401,4.479h-0.912l-0.581-1.945c-0.147-0.486-0.267-0.969-0.36-1.448h-0.019
				c-0.086,0.492-0.206,0.974-0.36,1.448l-0.617,1.945h-0.923l-1.318-4.479h1.023l0.506,2.129c0.123,0.503,0.223,0.984,0.304,1.438
				h0.018c0.074-0.375,0.196-0.852,0.37-1.428l0.636-2.138h0.812l0.609,2.092c0.147,0.51,0.267,1.002,0.359,1.475h0.027
				c0.068-0.461,0.169-0.953,0.305-1.475l0.543-2.092L59.559,8.286L59.559,8.286z"/>
			<path fill="#FFFFFF" d="M64.721,12.765h-0.995v-2.566c0-0.791-0.3-1.186-0.903-1.186c-0.295,0-0.534,0.108-0.719,0.327
				c-0.183,0.217-0.276,0.474-0.276,0.768v2.657h-0.996V9.565c0-0.394-0.013-0.82-0.037-1.282h0.875l0.047,0.7h0.027
				c0.116-0.217,0.289-0.397,0.516-0.541c0.27-0.167,0.572-0.251,0.903-0.251c0.418,0,0.766,0.135,1.042,0.405
				c0.344,0.332,0.516,0.827,0.516,1.484L64.721,12.765L64.721,12.765z"/>
			<path fill="#FFFFFF" d="M67.468,12.765h-0.996V6.23h0.996V12.765z"/>
			<path fill="#FFFFFF" d="M73.33,10.488c0,0.689-0.197,1.253-0.59,1.696c-0.413,0.456-0.959,0.683-1.642,0.683
				c-0.657,0-1.181-0.218-1.571-0.655c-0.39-0.437-0.585-0.987-0.585-1.65c0-0.693,0.201-1.262,0.604-1.705
				c0.402-0.442,0.944-0.663,1.626-0.663c0.658,0,1.186,0.218,1.586,0.654C73.139,9.271,73.33,9.819,73.33,10.488z M72.297,10.521
				c0-0.413-0.09-0.768-0.268-1.063c-0.208-0.357-0.506-0.536-0.893-0.536c-0.4,0-0.704,0.179-0.913,0.536
				c-0.179,0.296-0.267,0.656-0.267,1.082c0,0.414,0.089,0.768,0.267,1.063c0.216,0.357,0.516,0.536,0.904,0.536
				c0.379,0,0.678-0.181,0.893-0.545C72.205,11.291,72.297,10.934,72.297,10.521z"/>
			<path fill="#FFFFFF" d="M78.149,12.765h-0.894l-0.073-0.516h-0.028c-0.307,0.411-0.743,0.618-1.309,0.618
				c-0.423,0-0.766-0.136-1.023-0.407c-0.233-0.245-0.35-0.549-0.35-0.912c0-0.547,0.228-0.964,0.687-1.253
				c0.458-0.289,1.102-0.431,1.931-0.424V9.788c0-0.59-0.31-0.884-0.93-0.884c-0.441,0-0.831,0.111-1.167,0.332l-0.203-0.654
				c0.417-0.258,0.931-0.387,1.537-0.387c1.172,0,1.758,0.618,1.758,1.853v1.65C78.085,12.144,78.107,12.5,78.149,12.765z
				 M77.117,11.226v-0.691c-1.1-0.019-1.649,0.282-1.649,0.903c0,0.233,0.063,0.408,0.192,0.525
				c0.128,0.117,0.291,0.175,0.485,0.175c0.22,0,0.423-0.069,0.61-0.207c0.188-0.138,0.301-0.315,0.344-0.53
				C77.111,11.352,77.117,11.293,77.117,11.226z"/>
			<path fill="#FFFFFF" d="M83.811,12.765h-0.885l-0.047-0.719h-0.027c-0.283,0.547-0.762,0.821-1.438,0.821
				c-0.542,0-0.989-0.212-1.346-0.636c-0.356-0.424-0.533-0.975-0.533-1.65c0-0.725,0.192-1.313,0.579-1.761
				c0.376-0.418,0.837-0.627,1.383-0.627c0.603,0,1.023,0.203,1.263,0.608h0.019V6.23h0.997v5.328
				C83.774,11.995,83.786,12.396,83.811,12.765z M82.778,10.876v-0.747c0-0.129-0.009-0.233-0.028-0.313
				c-0.055-0.239-0.176-0.441-0.36-0.604c-0.186-0.163-0.407-0.244-0.666-0.244c-0.371,0-0.663,0.147-0.875,0.443
				c-0.214,0.295-0.319,0.673-0.319,1.134c0,0.443,0.102,0.802,0.306,1.079c0.216,0.294,0.505,0.441,0.869,0.441
				c0.327,0,0.59-0.123,0.787-0.368C82.683,11.469,82.778,11.195,82.778,10.876z"/>
			<path fill="#FFFFFF" d="M92.327,10.488c0,0.689-0.197,1.253-0.59,1.696c-0.412,0.456-0.96,0.683-1.641,0.683
				c-0.658,0-1.183-0.218-1.572-0.655s-0.585-0.987-0.585-1.65c0-0.693,0.201-1.262,0.604-1.705
				c0.402-0.442,0.945-0.663,1.628-0.663c0.656,0,1.186,0.218,1.584,0.654C92.136,9.271,92.327,9.819,92.327,10.488z M91.294,10.521
				c0-0.413-0.09-0.768-0.267-1.063c-0.209-0.357-0.507-0.536-0.894-0.536c-0.399,0-0.704,0.179-0.913,0.536
				c-0.178,0.296-0.268,0.656-0.268,1.082c0,0.414,0.091,0.768,0.268,1.063c0.216,0.357,0.516,0.536,0.903,0.536
				c0.381,0,0.68-0.181,0.893-0.545C91.202,11.291,91.294,10.934,91.294,10.521z"/>
			<path fill="#FFFFFF" d="M97.683,12.765h-0.996v-2.566c0-0.791-0.3-1.186-0.903-1.186c-0.295,0-0.535,0.108-0.72,0.327
				c-0.183,0.217-0.275,0.474-0.275,0.768v2.657h-0.996V9.565c0-0.394-0.013-0.82-0.036-1.282h0.875l0.047,0.7h0.027
				c0.116-0.217,0.288-0.397,0.516-0.541c0.27-0.167,0.572-0.251,0.902-0.251c0.418,0,0.767,0.135,1.043,0.405
				c0.343,0.332,0.517,0.827,0.517,1.484V12.765z"/>
			<path fill="#FFFFFF" d="M104.384,9.031h-1.097v2.176c0,0.553,0.194,0.83,0.581,0.83c0.179,0,0.326-0.015,0.443-0.046l0.025,0.755
				c-0.195,0.074-0.454,0.111-0.773,0.111c-0.394,0-0.699-0.119-0.921-0.359c-0.223-0.239-0.333-0.642-0.333-1.207V9.031h-0.653
				V8.286h0.653V7.464l0.978-0.294v1.115h1.097V9.031L104.384,9.031z"/>
			<path fill="#FFFFFF" d="M109.701,12.765h-0.994v-2.547c0-0.803-0.301-1.205-0.904-1.205c-0.461,0-0.776,0.233-0.948,0.699
				c-0.031,0.097-0.046,0.217-0.046,0.358v2.694h-0.997V6.23h0.997v2.7h0.018c0.314-0.491,0.763-0.736,1.346-0.736
				c0.412,0,0.753,0.135,1.023,0.406c0.337,0.337,0.506,0.839,0.506,1.502V12.765z"/>
			<path fill="#FFFFFF" d="M114.865,10.313c0,0.179-0.014,0.328-0.037,0.452h-2.987c0.013,0.442,0.156,0.78,0.434,1.014
				c0.252,0.209,0.577,0.313,0.976,0.313c0.443,0,0.846-0.07,1.209-0.212l0.155,0.691c-0.424,0.185-0.925,0.277-1.503,0.277
				c-0.693,0-1.24-0.204-1.636-0.613c-0.396-0.409-0.594-0.957-0.594-1.645c0-0.675,0.183-1.238,0.553-1.687
				c0.387-0.479,0.908-0.719,1.566-0.719c0.645,0,1.132,0.24,1.465,0.719C114.731,9.284,114.865,9.754,114.865,10.313z
				 M113.914,10.056c0.007-0.295-0.059-0.55-0.192-0.765c-0.173-0.276-0.437-0.415-0.792-0.415c-0.326,0-0.591,0.135-0.794,0.406
				c-0.165,0.215-0.263,0.473-0.295,0.774H113.914z"/>
		</g>
	</g>
</g>
</svg>
